<svg width="221" height="39" viewBox="0 0 221 39" fill="none" xmlns="http://www.w3.org/2000/svg">
<path d="M7.65 18.75H24.45V25.25H7.65V18.75ZM8.25 38H0.15V3H26.6V9.5H8.25V38ZM43.6988 38.4C40.8322 38.4 38.2822 37.8 36.0488 36.6C33.8488 35.4 32.0988 33.7667 30.7988 31.7C29.5322 29.6 28.8988 27.2167 28.8988 24.55C28.8988 21.85 29.5322 19.4667 30.7988 17.4C32.0988 15.3 33.8488 13.6667 36.0488 12.5C38.2822 11.3 40.8322 10.7 43.6988 10.7C46.5322 10.7 49.0655 11.3 51.2988 12.5C53.5322 13.6667 55.2822 15.2833 56.5488 17.35C57.8155 19.4167 58.4488 21.8167 58.4488 24.55C58.4488 27.2167 57.8155 29.6 56.5488 31.7C55.2822 33.7667 53.5322 35.4 51.2988 36.6C49.0655 37.8 46.5322 38.4 43.6988 38.4ZM43.6988 32C44.9988 32 46.1655 31.7 47.1988 31.1C48.2322 30.5 49.0488 29.65 49.6488 28.55C50.2488 27.4167 50.5488 26.0833 50.5488 24.55C50.5488 22.9833 50.2488 21.65 49.6488 20.55C49.0488 19.45 48.2322 18.6 47.1988 18C46.1655 17.4 44.9988 17.1 43.6988 17.1C42.3988 17.1 41.2322 17.4 40.1988 18C39.1655 18.6 38.3322 19.45 37.6988 20.55C37.0988 21.65 36.7988 22.9833 36.7988 24.55C36.7988 26.0833 37.0988 27.4167 37.6988 28.55C38.3322 29.65 39.1655 30.5 40.1988 31.1C41.2322 31.7 42.3988 32 43.6988 32ZM76.4625 38.4C73.5958 38.4 71.0458 37.8 68.8125 36.6C66.6125 35.4 64.8625 33.7667 63.5625 31.7C62.2958 29.6 61.6625 27.2167 61.6625 24.55C61.6625 21.85 62.2958 19.4667 63.5625 17.4C64.8625 15.3 66.6125 13.6667 68.8125 12.5C71.0458 11.3 73.5958 10.7 76.4625 10.7C79.2958 10.7 81.8292 11.3 84.0625 12.5C86.2958 13.6667 88.0458 15.2833 89.3125 17.35C90.5792 19.4167 91.2125 21.8167 91.2125 24.55C91.2125 27.2167 90.5792 29.6 89.3125 31.7C88.0458 33.7667 86.2958 35.4 84.0625 36.6C81.8292 37.8 79.2958 38.4 76.4625 38.4ZM76.4625 32C77.7625 32 78.9292 31.7 79.9625 31.1C80.9958 30.5 81.8125 29.65 82.4125 28.55C83.0125 27.4167 83.3125 26.0833 83.3125 24.55C83.3125 22.9833 83.0125 21.65 82.4125 20.55C81.8125 19.45 80.9958 18.6 79.9625 18C78.9292 17.4 77.7625 17.1 76.4625 17.1C75.1625 17.1 73.9958 17.4 72.9625 18C71.9292 18.6 71.0958 19.45 70.4625 20.55C69.8625 21.65 69.5625 22.9833 69.5625 24.55C69.5625 26.0833 69.8625 27.4167 70.4625 28.55C71.0958 29.65 71.9292 30.5 72.9625 31.1C73.9958 31.7 75.1625 32 76.4625 32ZM107.976 38.4C105.443 38.4 103.16 37.8333 101.126 36.7C99.0928 35.5333 97.4762 33.9167 96.2762 31.85C95.1095 29.7833 94.5262 27.35 94.5262 24.55C94.5262 21.7167 95.1095 19.2667 96.2762 17.2C97.4762 15.1333 99.0928 13.5333 101.126 12.4C103.16 11.2667 105.443 10.7 107.976 10.7C110.243 10.7 112.226 11.2 113.926 12.2C115.626 13.2 116.943 14.7167 117.876 16.75C118.81 18.7833 119.276 21.3833 119.276 24.55C119.276 27.6833 118.826 30.2833 117.926 32.35C117.026 34.3833 115.726 35.9 114.026 36.9C112.36 37.9 110.343 38.4 107.976 38.4ZM109.326 32C110.593 32 111.743 31.7 112.776 31.1C113.81 30.5 114.626 29.65 115.226 28.55C115.86 27.4167 116.176 26.0833 116.176 24.55C116.176 22.9833 115.86 21.65 115.226 20.55C114.626 19.45 113.81 18.6 112.776 18C111.743 17.4 110.593 17.1 109.326 17.1C108.026 17.1 106.86 17.4 105.826 18C104.793 18.6 103.96 19.45 103.326 20.55C102.726 21.65 102.426 22.9833 102.426 24.55C102.426 26.0833 102.726 27.4167 103.326 28.55C103.96 29.65 104.793 30.5 105.826 31.1C106.86 31.7 108.026 32 109.326 32ZM116.376 38V32.5L116.526 24.5L116.026 16.55V0.899998H123.826V38H116.376ZM131.595 38V3H138.295L158.945 28.2H155.695V3H163.695V38H157.045L136.345 12.8H139.595V38H131.595ZM184.776 38.4C181.71 38.4 179.01 37.8 176.676 36.6C174.376 35.4 172.593 33.7667 171.326 31.7C170.06 29.6 169.426 27.2167 169.426 24.55C169.426 21.85 170.043 19.4667 171.276 17.4C172.543 15.3 174.26 13.6667 176.426 12.5C178.593 11.3 181.043 10.7 183.776 10.7C186.41 10.7 188.776 11.2667 190.876 12.4C193.01 13.5 194.693 15.1 195.926 17.2C197.16 19.2667 197.776 21.75 197.776 24.65C197.776 24.95 197.76 25.3 197.726 25.7C197.693 26.0667 197.66 26.4167 197.626 26.75H175.776V22.2H193.526L190.526 23.55C190.526 22.15 190.243 20.9333 189.676 19.9C189.11 18.8667 188.326 18.0667 187.326 17.5C186.326 16.9 185.16 16.6 183.826 16.6C182.493 16.6 181.31 16.9 180.276 17.5C179.276 18.0667 178.493 18.8833 177.926 19.95C177.36 20.9833 177.076 22.2167 177.076 23.65V24.85C177.076 26.3167 177.393 27.6167 178.026 28.75C178.693 29.85 179.61 30.7 180.776 31.3C181.976 31.8667 183.376 32.15 184.976 32.15C186.41 32.15 187.66 31.9333 188.726 31.5C189.826 31.0667 190.826 30.4167 191.726 29.55L195.876 34.05C194.643 35.45 193.093 36.5333 191.226 37.3C189.36 38.0333 187.21 38.4 184.776 38.4ZM213.969 38.4C210.802 38.4 208.336 37.6 206.569 36C204.802 34.3667 203.919 31.95 203.919 28.75V5.15H211.719V28.65C211.719 29.7833 212.019 30.6667 212.619 31.3C213.219 31.9 214.036 32.2 215.069 32.2C216.302 32.2 217.352 31.8667 218.219 31.2L220.319 36.7C219.519 37.2667 218.552 37.7 217.419 38C216.319 38.2667 215.169 38.4 213.969 38.4ZM199.769 17.7V11.7H218.419V17.7H199.769Z" fill="#CC7638"/>
</svg>
